<?xml version="1.0" encoding="utf-8"?>
<!-- Generator: Adobe Illustrator 27.0.0, SVG Export Plug-In . SVG Version: 6.00 Build 0)  -->
<svg version="1.1" id="圖層_1" xmlns="http://www.w3.org/2000/svg" xmlns:xlink="http://www.w3.org/1999/xlink" x="0px" y="0px"
	 viewBox="0 0 32 32" style="enable-background:new 0 0 32 32;" xml:space="preserve">
<style type="text/css">
	.st0{fill:url(#SVGID_1_);}
	.st1{enable-background:new    ;}
	.st2{fill:#FFFFFF;}
</style>
<linearGradient id="SVGID_1_" gradientUnits="userSpaceOnUse" x1="-1290.375" y1="22.9375" x2="-1289.375" y2="23.9375" gradientTransform="matrix(32 0 0 32 41292 -734)">
	<stop  offset="0" style="stop-color:#F97316"/>
	<stop  offset="0.5" style="stop-color:#3B82F6"/>
	<stop  offset="1" style="stop-color:#22C55E"/>
</linearGradient>
<path class="st0" d="M8,0h16c4.4,0,8,3.6,8,8v16c0,4.4-3.6,8-8,8H8c-4.4,0-8-3.6-8-8V8C0,3.6,3.6,0,8,0z"/>
<g class="st1">
	<path class="st2" d="M2.8,22.3c0.1-1.5,0.2-2.7,0.3-3.5c0.1-1.3,0.2-3,0.2-5.1c0.1-1.6,0.1-2.8,0.1-3.4V9.1c0.8,0,1.4,0,2,0
		c0.5,0,1.2,0,2.1,0c0.9,0,1.7,0,2.4,0c0.9,0,1.6,0.1,2.3,0.2c0.7,0.1,1.3,0.3,1.8,0.6c0.6,0.3,1,0.7,1.4,1.3
		c0.4,0.5,0.7,1.1,0.9,1.8c0.2,0.7,0.3,1.4,0.3,2.2c0,0.7-0.1,1.4-0.2,2.1S16,18.5,15.7,19c-0.3,0.5-0.6,1-1,1.4
		c-0.4,0.4-0.8,0.7-1.3,1c-0.4,0.2-0.7,0.4-1.1,0.5c-0.4,0.1-0.9,0.2-1.5,0.3c-0.7,0.1-1.5,0.1-2.4,0.1l-3.9,0
		C4.3,22.3,3.7,22.3,2.8,22.3z M7,19.4c0.4,0,0.7,0,1.1,0c0.7,0,1.2-0.1,1.8-0.2s1-0.4,1.4-0.7s0.7-0.9,0.9-1.5s0.3-1.2,0.3-1.8
		c0-0.8-0.1-1.4-0.4-1.9c-0.3-0.5-0.6-0.9-1.1-1.1C10.4,12,9.8,11.9,9,11.9c-0.5,0-1,0-1.6,0.1L7,19.4z"/>
	<path class="st2" d="M18.8,22.3c0.4-0.7,0.8-1.4,1.1-2.1c0.4-0.7,1.1-2,2.1-3.9l1.7-3.3c0.1-0.2,0.3-0.6,0.6-1.2c-0.6,0-1,0-1.3,0
		c-1.4,0-2.8,0-4.4,0.1c0.1-0.9,0.1-1.8,0.1-3h10.4L29,12.1l-2.3,4.5l-1.5,2.9c-0.4,0.8-0.8,1.8-1.3,2.8H18.8z"/>
</g>
</svg>
